<?xml version="1.0" standalone="no"?>
<!DOCTYPE svg PUBLIC "-//W3C//DTD SVG 20010904//EN"
 "http://www.w3.org/TR/2001/REC-SVG-20010904/DTD/svg10.dtd">
<svg version="1.0" xmlns="http://www.w3.org/2000/svg"
 width="512.000000pt" height="512.000000pt" viewBox="0 0 512.000000 512.000000"
 preserveAspectRatio="xMidYMid meet">

<g transform="translate(0.000000,512.000000) scale(0.100000,-0.100000)"
fill="#000000" stroke="none">
<path d="M4545 5091 c-218 -64 -505 -254 -753 -500 -100 -99 -100 -99 -143
-95 -39 4 -368 23 -1209 69 -146 8 -341 19 -435 25 -93 6 -294 17 -445 25
-151 9 -423 24 -604 35 -180 10 -336 16 -345 13 -31 -11 -71 -57 -76 -87 -3
-17 -2 -158 3 -313 l7 -283 25 -24 c14 -13 385 -230 825 -481 440 -251 804
-461 809 -466 6 -5 -44 -64 -125 -146 -130 -133 -194 -209 -563 -666 l-167
-207 -477 242 c-470 238 -478 241 -513 230 -46 -16 -344 -314 -354 -355 -4
-16 -4 -41 1 -57 6 -19 145 -168 377 -405 l368 -375 -57 -67 c-32 -38 -71 -97
-88 -133 -91 -193 21 -442 229 -511 22 -7 74 -13 115 -13 101 1 165 27 270
111 l84 67 340 -346 c188 -190 351 -351 363 -357 30 -15 69 -14 101 3 32 17
305 292 321 323 6 12 11 35 11 51 0 17 -85 206 -210 467 -116 240 -212 441
-215 445 -3 4 82 77 187 161 398 318 547 445 683 580 l140 139 460 -816 c253
-448 470 -826 483 -839 12 -12 36 -25 53 -29 18 -3 156 -6 308 -6 305 0 310 1
336 64 13 32 10 114 -55 1246 -11 201 -27 480 -35 620 -8 140 -26 478 -42 751
l-27 497 104 108 c376 394 558 761 496 1001 -21 83 -45 128 -100 190 -83 92
-183 133 -320 132 -46 0 -107 -8 -141 -18z m241 -220 c52 -23 89 -71 105 -135
31 -124 -56 -329 -237 -563 -111 -142 -76 -105 -1083 -1121 -514 -519 -974
-975 -1035 -1026 -61 -51 -232 -190 -380 -310 l-270 -217 -180 180 -180 180
204 253 c397 493 396 492 1401 1500 798 801 982 980 1071 1045 278 203 460
270 584 214z m-2596 -512 c707 -40 1287 -74 1289 -76 4 -3 -1086 -1104 -1100
-1111 -3 -1 -369 205 -812 458 l-807 461 0 152 c0 84 -3 163 -7 176 l-6 24 79
-6 c43 -3 657 -39 1364 -78z m2110 -928 c0 -17 34 -631 75 -1366 41 -734 75
-1338 75 -1340 0 -3 -76 -5 -170 -5 l-170 0 -23 38 c-13 20 -220 387 -461 814
l-438 778 549 555 c301 305 551 555 556 555 4 0 7 -13 7 -29z m-3436 -1441
l451 -230 237 -242 236 -241 207 -431 206 -430 -71 -70 -70 -71 -556 555
c-305 305 -709 712 -896 903 l-341 348 69 70 c37 38 70 69 73 69 2 0 207 -104
455 -230z m166 -995 c70 -70 111 -118 105 -123 -117 -106 -176 -128 -250 -92
-75 37 -111 121 -81 193 15 36 93 137 105 137 4 0 58 -52 121 -115z"/>
</g>
</svg>
